# AST/ASF file generated using VICON BodyLanguage
# -----------------------------------------------
:version 1.10
:name VICON
:units
  mass 1.0
  length 0.45
  angle deg
:documentation
   .ast/.asf automatically generated from VICON data using
   VICON BodyBuilder and BodyLanguage model FoxedUp or BRILLIANT.MOD
:root
   order TX TY TZ RX RY RZ
   axis XYZ
   position 0 0 0  
   orientation 0 0 0 
:bonedata
  begin
     id 1 
     name lhipjoint
     direction 0.588788 -0.725889 0.355548 
     length 2.37778 
     axis 0 0 0  XYZ
  end
  begin
     id 2 
     name lfemur
     direction 0.34202 -0.939693 0  
     length 6.86393  
     axis 0 0 20  XYZ
    dof rx ry rz
    limits (-160.0 20.0)
           (-70.0 70.0)
           (-60.0 70.0)
  end
  begin
     id 3 
     name ltibia
     direction 0.34202 -0.939693 0   
     length 7.32851   
     axis 0 0 20   XYZ
    dof rx
    limits (-10.0 170.0)
  end
  begin
     id 4 
     name lfoot
     direction 0.0626533 -0.172138 0.983078   
     length 1.98929   
     axis -90 7.62852e-016 20   XYZ
    dof rx rz
    limits (-45.0 90.0)
           (-70.0 20.0)
  end
  begin
     id 5 
     name ltoes
     direction 1.53647e-011 -4.21734e-011 1   
     length 1.00479   
     axis -90 7.62852e-016 20   XYZ
    dof rx
    limits (-90.0 20.0)
  end
  begin
     id 6 
     name rhipjoint
     direction -0.59141 -0.724168 0.354705   
     length 2.38343  
     axis 0 0 0  XYZ 
  end
  begin
     id 7 
     name rfemur
     direction -0.34202 -0.939693 0   
     length 6.95589   
     axis 0 0 -20   XYZ
    dof rx ry rz
    limits (-160.0 20.0)
           (-70.0 70.0)
           (-70.0 60.0)
  end
  begin
     id 8 
     name rtibia
     direction -0.34202 -0.939693 0   
     length 7.32327   
     axis 0 0 -20   XYZ
    dof rx
    limits (-10.0 170.0)
 end
 begin
     id 9 
     name rfoot
     direction -0.0660461 -0.18146 0.981178   
     length 1.85272  
     axis -90 -7.62852e-016 -20   XYZ
    dof rx rz
    limits (-45.0 90.0)
           (-20.0 70.0)
  end
  begin
     id 10 
     name rtoes
     direction -1.53586e-011 -4.21988e-011 1   
     length 0.93746   
     axis -90 -7.62852e-016 -20   XYZ
    dof rx
    limits (-90.0 20.0)
  end
  begin
     id 11 
     name lowerback
     direction -0.0107982 0.991059 0.13299   
     length 1.98691   
     axis 0 0 0   XYZ
    dof rx ry rz
    limits (-20.0 45.0)
           (-30.0 30.0)
           (-30.0 30.0)
  end
  begin
     id 12 
     name upperback
     direction 0.0076296 0.999916 0.0104576   
     length 1.99501   
     axis 0 0 0   XYZ
    dof rx ry rz
    limits (-20.0 45.0)
           (-30.0 30.0)
           (-30.0 30.0)
  end
  begin
     id 13 
     name thorax
     direction 0.01176 0.998615 -0.0512909   
     length 2.03144   
     axis 0 0 0   XYZ
    dof rx ry rz
    limits (-20.0 45.0)
           (-30.0 30.0)
           (-30.0 30.0)
  end
  begin
     id 14 
     name lowerneck
     direction -0.0171909 0.999644 0.0204011   
     length 1.71818   
     axis 0 0 0   XYZ
    dof rx ry rz
    limits (-20.0 45.0)
           (-30.0 30.0)
           (-30.0 30.0)
  end
  begin
     id 15 
     name upperneck
     direction 0.0250902 0.997482 -0.0663316   
     length 1.66199   
     axis 0 0 0   XYZ
    dof rx ry rz
    limits (-20.0 45.0)
           (-30.0 30.0)
           (-30.0 30.0)
  end
  begin
     id 16
     name head
     direction 0.00881535 0.99956 -0.0283365  
     length 1.81545  
     axis 0 0 0   XYZ
    dof rx ry rz
    limits (-20.0 45.0)
           (-30.0 30.0)
           (-30.0 30.0)
  end
  begin
     id 17 
     name lclavicle
     direction 0.840411 0.486876 -0.238035  
     length 3.30409  
     axis 0 0 0   XYZ
    dof ry rz
    limits (-20.0 10.0)
           (0.0 20.0)
  end
  begin
     id 18 
     name lhumerus
     direction 1 -4.48977e-011 -5.16239e-027   
     length 4.62672   
     axis 180 -30 -90   XYZ
    dof rx ry rz
    limits (-60.0 90.0)
           (-90.0 90.0)
           (-90.0 90.0)
  end
  begin
     id 19
     name lradius
     direction 1 -4.48977e-011 -8.71171e-027   
     length 3.11018   
     axis 180 -30 -90   XYZ
    dof rx
    limits (-10.0 170.0)
  end
  begin
     id 20
     name lwrist
     direction 1 -4.48912e-011 -1.03764e-026   
     length 1.55509   
     axis 9.09556e-015 90 90   XYZ
    dof ry
    limits (-180.0 0.0)
 end
  begin
     id 21 
     name lhand
     direction 1 -4.49072e-011 -2.07528e-026   
     length 0.743834   
     axis 1.3242e-014 90 90   XYZ
    dof rx rz
    limits (-90.0 90.0)
           (-45.0 45.0)
  end
  begin
     id 22 
     name lfingers
     direction 1 -4.48909e-011 -4.15056e-026   
     length 0.599698   
     axis 2.64841e-014 90 90   XYZ
    dof rx
    limits (0.0 90.0)
  end
  begin
     id 23
     name lthumb
     direction 0.707107 -6.35013e-011 0.707107   
     length 0.86105   
     axis -90 45 2.85299e-015   XYZ
    dof rx rz
    limits (-45.0 45.0)
           (-45.0 45.0)
  end
  begin
     id 24 
     name rclavicle
     direction -0.835208 0.500237 -0.228452   
     length 3.2716  
     axis 0 0 0   XYZ 
    dof ry rz
    limits (-10.0 20.0)
           (-20.0 0.0)
  end
  begin
     id 25 
     name rhumerus
     direction -1 -4.48978e-011 -5.1953e-028  
     length 4.55919   
     axis 180 30 90   XYZ
    dof rx ry rz
    limits (-90.0 60.0)
           (-90.0 90.0)
           (-90.0 90.0)
  end
  begin
     id 26 
     name rradius
     direction -1 -4.48961e-011 -5.99546e-027   
     length 3.22748   
     axis 180 30 90   XYZ
    dof rx
    limits (-10.0 170.0)
  end
  begin
     id 27 
     name rwrist
     direction -1 -4.48986e-011 -1.03764e-026   
     length 1.61374   
     axis 9.09556e-015 -90 -90   XYZ
    dof ry
    limits (-180.0 0.0)
  end
  begin
     id 28
     name rhand
     direction -1 -4.4899e-011 -2.07528e-026   
     length 0.700882   
     axis 1.3242e-014 -90 -90   XYZ
    dof rx rz
    limits (-90.0 90.0)
           (-45.0 45.0)
  end
  begin
     id 29
     name rfingers
     direction -1 -4.48991e-011 -4.15056e-026   
     length 0.565069   
     axis 2.64841e-014 -90 -90   XYZ
    dof rx
    limits (0.0 90.0)
  end
  begin
     id 30
     name rthumb
     direction -0.707107 -6.34804e-011 0.707107   
     length 0.811329   
     axis -90 -45 -2.85299e-015   XYZ
    dof rx rz
    limits (-45.0 45.0)
           (-45.0 45.0)
  end
:hierarchy
  begin
    root lhipjoint rhipjoint lowerback
    lhipjoint lfemur
    lfemur ltibia
    ltibia lfoot
    lfoot ltoes
    rhipjoint rfemur
    rfemur rtibia
    rtibia rfoot
    rfoot rtoes
    lowerback upperback
    upperback thorax
    thorax lowerneck lclavicle rclavicle
    lowerneck upperneck
    upperneck head
    lclavicle lhumerus
    lhumerus lradius
    lradius lwrist
    lwrist lhand lthumb
    lhand lfingers
    rclavicle rhumerus
    rhumerus rradius
    rradius rwrist
    rwrist rhand rthumb
    rhand rfingers
  end

#!OML:ASF F:\VICON\USERDATA\INSTALL\SteveWalk\SteveWalk.ASF
:FULLY-SPECIFIED
:DEGREES
144
root -0.460075 16.5187 -11.6031 16.7129 4.51056 0.787098
lowerback -14.6077 0.0936124 0.475257
upperback -5.07884 -0.0120338 2.08506
thorax 2.82345 0.00962902 1.91193
lowerneck -4.34497 -1.62443 0.30998
upperneck 10.1489 -1.83989 -3.63153
head 4.05755 -1.06206 -1.35731
rclavicle -1.91175e-014 7.15625e-015
rhumerus -33.8586 -17.8857 -76.9872
rradius 28.8958
rwrist -1.91022
rhand -16.7326 -37.5869
rfingers 7.12502
rthumb 9.49336 -67.353
lclavicle -1.91175e-014 7.15625e-015
lhumerus -39.459 13.3491 79.6934
lradius 18.3403
lwrist -20.9901
lhand -11.8997 -16.2697
lfingers 7.12502
lthumb 14.1536 13.2281
rfemur -28.9138 -4.56395 25.6189
rtibia 35.6399
rfoot -22.9294 5.06807
rtoes -4.83751
lfemur -42.1748 2.69509 -21.3367
ltibia 68.9935
lfoot -6.0341 3.59755
ltoes -4.62984
145
root -0.46025 16.5081 -11.3954 16.8115 4.69572 0.866092
lowerback -14.7911 0.0182986 0.455751
upperback -5.05988 -0.108048 1.9859
thorax 2.94453 -0.0388768 1.80398
lowerneck -4.28596 -1.58119 0.368306
upperneck 10.0393 -1.79666 -3.56341
head 4.0076 -1.03402 -1.33972
rclavicle 9.80567e-015 2.06736e-014
rhumerus -32.8007 -15.7522 -78.3335
rradius 30.6576
rwrist -3.71199
rhand -16.6357 -37.9317
rfingers 7.12502
rthumb 9.58688 -67.6936
lclavicle 9.80567e-015 2.06736e-014
lhumerus -40.222 15.2681 78.0145
lradius 17.0295
lwrist -23.8641
lhand -11.2815 -16.4797
lfingers 7.12502
lthumb 14.7493 12.9756
rfemur -28.1179 -5.39795 25.7293
rtibia 35.5676
rfoot -23.5936 5.62426
rtoes -3.5837
lfemur -43.3128 2.22602 -21.4986
ltibia 67.5147
lfoot -6.67754 3.94774
ltoes -2.85787
146
root -0.462206 16.4959 -11.1902 16.8986 4.75647 0.898134
lowerback -14.9627 -0.0413806 0.398428
upperback -4.99593 -0.180924 1.94173
thorax 3.10588 -0.0757593 1.77865
lowerneck -4.31862 -1.55359 0.434567
upperneck 9.98941 -1.76328 -3.59167
head 3.99652 -1.01616 -1.35911
rclavicle -3.62044e-015 5.56597e-015
rhumerus -31.6737 -13.4601 -79.4886
rradius 32.1941
rwrist -5.40439
rhand -16.7342 -36.7984
rfingers 7.12502
rthumb 9.49185 -66.5646
lclavicle -3.62044e-015 5.56597e-015
lhumerus -41.1173 17.2648 76.2944
lradius 16.109
lwrist -26.7934
lhand -10.4976 -16.4767
lfingers 7.12502
lthumb 15.5044 12.9217
rfemur -27.3492 -5.93261 25.8252
rtibia 35.4663
rfoot -23.9908 5.94642
rtoes -3.83311
lfemur -44.336 1.84721 -21.616
ltibia 65.7972
lfoot -7.46793 4.2964
ltoes -2.5869
147
root -0.463098 16.4875 -10.9851 16.9308 4.5252 0.826937
lowerback -15.0236 0.029624 0.440119
upperback -4.99526 -0.0916906 1.87174
thorax 3.13653 -0.0321912 1.69733
lowerneck -4.25858 -1.55591 0.633482
upperneck 10.0286 -1.77337 -3.67786
head 3.99654 -1.01729 -1.4237
rclavicle 1.23076e-016 1.51076e-014
rhumerus -30.7997 -11.572 -80.4132
rradius 33.8036
rwrist -6.70652
rhand -16.6227 -36.1787
rfingers 7.12502
rthumb 9.59934 -65.9401
lclavicle 1.23076e-016 1.51076e-014
lhumerus -42.3335 19.2382 74.2964
lradius 15.3643
lwrist -29.9303
lhand -9.66265 -16.0899
lfingers 7.12502
lthumb 16.3085 13.2444
rfemur -26.5323 -6.26662 25.9284
rtibia 35.3184
rfoot -24.3468 6.33623
rtoes -4.215
lfemur -45.1714 1.71666 -21.6932
ltibia 63.8051
lfoot -8.31069 4.77303
ltoes -5.24331
148
root -0.462836 16.4848 -10.7791 16.9981 4.18647 0.842068
lowerback -15.0064 0.13091 0.453876
upperback -5.0797 0.0473562 1.72811
thorax 3.03503 0.0363268 1.56238
lowerneck -4.23079 -1.52807 0.83519
upperneck 10.1662 -1.74673 -3.69811
head 4.0394 -0.998055 -1.46743
rclavicle -7.40939e-015 7.15625e-015
rhumerus -30.1545 -9.97274 -81.1932
rradius 35.557
rwrist -7.82096
rhand -15.8822 -37.2443
rfingers 7.12502
rthumb 10.3138 -66.9714
lclavicle -7.40939e-015 7.15625e-015
lhumerus -43.7076 20.9516 72.1911
lradius 14.6847
lwrist -32.8172
lhand -8.82582 -15.3005
lfingers 7.12502
lthumb 17.1141 13.9658
rfemur -25.7018 -6.73365 25.9181
rtibia 35.098
rfoot -24.7827 6.86381
rtoes -4.76115
lfemur -45.9086 1.6699 -21.9039
ltibia 61.4925
lfoot -8.80972 5.32085
ltoes -8.03965
149
root -0.459973 16.478 -10.5725 17.1546 3.79509 0.862428
lowerback -15.1243 0.225199 0.487057
upperback -5.09629 0.169699 1.60881
thorax 3.07829 0.0959322 1.44043
lowerneck -4.15454 -1.45205 0.815089
upperneck 10.0928 -1.65751 -3.57075
head 4.0011 -0.947928 -1.4142
rclavicle -1.7031e-014 5.56597e-015
rhumerus -29.322 -8.35405 -81.8912
rradius 37.1887
rwrist -8.88135
rhand -15.6383 -37.2922
rfingers 7.12502
rthumb 10.549 -67.0074
lclavicle -1.7031e-014 5.56597e-015
lhumerus -44.9944 22.4636 70.2868
lradius 14.1473
lwrist -35.3245
lhand -8.01725 -14.6585
lfingers 7.12502
lthumb 17.8922 14.5384
rfemur -24.8768 -7.20314 25.8597
rtibia 34.7714
rfoot -25.2093 7.58522
rtoes -4.92305
lfemur -46.6076 1.63212 -22.1223
ltibia 58.933
lfoot -8.70959 6.07892
ltoes -6.54687
150
root -0.456413 16.4739 -10.3625 17.3016 3.46418 0.849187
lowerback -15.3759 0.297133 0.508984
upperback -4.99807 0.258688 1.52625
thorax 3.31489 0.138591 1.35985
lowerneck -4.0707 -1.38332 0.803032
upperneck 9.81153 -1.58503 -3.431
head 3.887 -0.903964 -1.35548
rclavicle 7.35659e-015 5.56597e-015
rhumerus -28.3049 -6.76095 -82.5083
rradius 38.7305
rwrist -10.0874
rhand -15.8344 -36.0015
rfingers 7.12502
rthumb 10.3599 -65.7263
lclavicle 7.35659e-015 5.56597e-015
lhumerus -46.1637 23.7501 68.5809
lradius 13.7148
lwrist -37.5663
lhand -7.3227 -14.5306
lfingers 7.12502
lthumb 18.5604 14.604
rfemur -23.9628 -7.6154 25.787
rtibia 34.3397
rfoot -25.4886 8.46528
rtoes -3.96788
lfemur -47.1576 1.53545 -22.2621
ltibia 56.1628
lfoot -8.84602 6.79012
ltoes -3.27937
151
root -0.451662 16.4714 -10.1499 17.3997 3.03567 0.721418
lowerback -15.5898 0.439031 0.614154
upperback -4.94014 0.427792 1.46211
thorax 3.48818 0.221203 1.26611
lowerneck -4.06631 -1.35512 0.921365
upperneck 9.70776 -1.55832 -3.43769
head 3.84941 -0.886036 -1.37573
rclavicle -6.83322e-016 2.38542e-015
rhumerus -27.5221 -5.22358 -82.9458
rradius 40.3931
rwrist -11.0294
rhand -15.6834 -36.1064
rfingers 7.12502
rthumb 10.5056 -65.8239
lclavicle -6.83322e-016 2.38542e-015
lhumerus -47.3669 24.6521 67.0481
lradius 13.3222
lwrist -39.1627
lhand -6.68248 -14.7162
lfingers 7.12502
lthumb 19.1762 14.3584
rfemur -23.0026 -7.95125 25.7873
rtibia 33.8341
rfoot -25.7399 9.31117
rtoes -3.67816
lfemur -47.5557 1.55867 -22.2791
ltibia 53.1974
lfoot -9.56616 6.85631
ltoes -0.383652
152
root -0.447797 16.4619 -9.93898 17.4046 2.5401 0.38595
lowerback -15.6118 0.631694 0.903947
upperback -4.93754 0.635532 1.48042
thorax 3.50178 0.323445 1.15957
lowerneck -4.00317 -1.33391 0.964518
upperneck 9.77586 -1.52613 -3.49227
head 3.86157 -0.870816 -1.40049
rclavicle 7.237e-016 -1.90833e-014
rhumerus -26.7835 -3.96481 -83.1858
rradius 41.8242
rwrist -11.2891
rhand -15.776 -36.1624
rfingers 7.12502
rthumb 10.4162 -65.8844
lclavicle 7.237e-016 -1.90833e-014
lhumerus -48.8237 25.8209 65.1286
lradius 12.8248
lwrist -40.973
lhand -6.23358 -15.0106
lfingers 7.12502
lthumb 19.6078 14.0206
rfemur -21.9594 -8.24533 25.9683
rtibia 33.2262
rfoot -25.7759 10.3976
rtoes -2.98826
lfemur -47.8215 1.6982 -22.0584
ltibia 50.1086
lfoot -9.90069 7.27078
ltoes 0.286541
153
root -0.449847 16.4507 -9.72891 17.3636 1.95525 0.269
lowerback -15.5037 0.753818 0.834748
upperback -4.914 0.806613 1.50272
thorax 3.46527 0.407985 1.25179
lowerneck -3.89509 -1.25694 0.910599
upperneck 9.73899 -1.42151 -3.46864
head 3.83035 -0.819002 -1.37609
rclavicle 1.18991e-014 2.38542e-015
rhumerus -25.9134 -2.73132 -83.3714
rradius 43.0681
rwrist -11.6284
rhand -15.5179 -36.2998
rfingers 7.12502
rthumb 10.6652 -66.0091
lclavicle 1.18991e-014 2.38542e-015
lhumerus -50.1262 26.3193 63.9474
lradius 12.6599
lwrist -41.7728
lhand -5.88843 -14.714
lfingers 7.12502
lthumb 19.9396 14.283
rfemur -20.7864 -8.41319 25.8601
rtibia 32.5189
rfoot -25.638 11.5032
rtoes -1.83357
lfemur -47.9571 1.84935 -22.0429
ltibia 46.8385
lfoot -9.88005 8.78161
ltoes -4.02591
